%TF.GenerationSoftware,KiCad,Pcbnew,8.0.3*%
%TF.CreationDate,2024-07-12T15:18:38+08:00*%
%TF.ProjectId,seq_v003f4,7365715f-7630-4303-9366-342e6b696361,rev?*%
%TF.SameCoordinates,Original*%
%TF.FileFunction,Legend,Bot*%
%TF.FilePolarity,Positive*%
%FSLAX46Y46*%
G04 Gerber Fmt 4.6, Leading zero omitted, Abs format (unit mm)*
G04 Created by KiCad (PCBNEW 8.0.3) date 2024-07-12 15:18:38*
%MOMM*%
%LPD*%
G01*
G04 APERTURE LIST*
%ADD10C,0.300000*%
%ADD11C,0.000000*%
G04 APERTURE END LIST*
D10*
X179321427Y-102249757D02*
X179464285Y-102178328D01*
X179464285Y-102178328D02*
X179678570Y-102178328D01*
X179678570Y-102178328D02*
X179892856Y-102249757D01*
X179892856Y-102249757D02*
X180035713Y-102392614D01*
X180035713Y-102392614D02*
X180107142Y-102535471D01*
X180107142Y-102535471D02*
X180178570Y-102821185D01*
X180178570Y-102821185D02*
X180178570Y-103035471D01*
X180178570Y-103035471D02*
X180107142Y-103321185D01*
X180107142Y-103321185D02*
X180035713Y-103464042D01*
X180035713Y-103464042D02*
X179892856Y-103606900D01*
X179892856Y-103606900D02*
X179678570Y-103678328D01*
X179678570Y-103678328D02*
X179535713Y-103678328D01*
X179535713Y-103678328D02*
X179321427Y-103606900D01*
X179321427Y-103606900D02*
X179249999Y-103535471D01*
X179249999Y-103535471D02*
X179249999Y-103035471D01*
X179249999Y-103035471D02*
X179535713Y-103035471D01*
X178392856Y-102178328D02*
X178392856Y-102535471D01*
X178749999Y-102392614D02*
X178392856Y-102535471D01*
X178392856Y-102535471D02*
X178035713Y-102392614D01*
X178607142Y-102821185D02*
X178392856Y-102535471D01*
X178392856Y-102535471D02*
X178178570Y-102821185D01*
X177249999Y-102178328D02*
X177249999Y-102535471D01*
X177607142Y-102392614D02*
X177249999Y-102535471D01*
X177249999Y-102535471D02*
X176892856Y-102392614D01*
X177464285Y-102821185D02*
X177249999Y-102535471D01*
X177249999Y-102535471D02*
X177035713Y-102821185D01*
X176107142Y-102178328D02*
X176107142Y-102535471D01*
X176464285Y-102392614D02*
X176107142Y-102535471D01*
X176107142Y-102535471D02*
X175749999Y-102392614D01*
X176321428Y-102821185D02*
X176107142Y-102535471D01*
X176107142Y-102535471D02*
X175892856Y-102821185D01*
D11*
%TO.C,G\u002A\u002A\u002A*%
G36*
X186155184Y-111043333D02*
G01*
X186155184Y-113837333D01*
X185942809Y-113837333D01*
X185860659Y-113834182D01*
X185786584Y-113802092D01*
X185747596Y-113705956D01*
X185732271Y-113510679D01*
X185729182Y-113181167D01*
X185712949Y-112783368D01*
X185644580Y-112405006D01*
X185519800Y-112172229D01*
X185335385Y-112075994D01*
X185209852Y-112071765D01*
X185053381Y-112140802D01*
X184951992Y-112320592D01*
X184897303Y-112629779D01*
X184880936Y-113087005D01*
X184880936Y-113848581D01*
X184647324Y-113821790D01*
X184413712Y-113795000D01*
X184413712Y-112933750D01*
X184413713Y-112922621D01*
X184417024Y-112529442D01*
X184431775Y-112265322D01*
X184465465Y-112090955D01*
X184525593Y-111967033D01*
X184619657Y-111854250D01*
X184795965Y-111726537D01*
X185068779Y-111640309D01*
X185340084Y-111641205D01*
X185543545Y-111737600D01*
X185569582Y-111762638D01*
X185620205Y-111792880D01*
X185652210Y-111754989D01*
X185670252Y-111623667D01*
X185678988Y-111373612D01*
X185683076Y-110979524D01*
X185683459Y-110910186D01*
X185679637Y-110591108D01*
X185661484Y-110407912D01*
X185623588Y-110332139D01*
X185560535Y-110335332D01*
X185396897Y-110392528D01*
X185046048Y-110427407D01*
X184756687Y-110333526D01*
X184585755Y-110147889D01*
X184456088Y-109835240D01*
X184393401Y-109459105D01*
X184393937Y-109430925D01*
X184885408Y-109430925D01*
X184915625Y-109684557D01*
X184982876Y-109841067D01*
X185036576Y-109878148D01*
X185228878Y-109932719D01*
X185442866Y-109937639D01*
X185588851Y-109886222D01*
X185608225Y-109852483D01*
X185639069Y-109675927D01*
X185645512Y-109418205D01*
X185630065Y-109140939D01*
X185595239Y-108905752D01*
X185543545Y-108774267D01*
X185532222Y-108763567D01*
X185336501Y-108679128D01*
X185122087Y-108706298D01*
X184968875Y-108836434D01*
X184939883Y-108905683D01*
X184893176Y-109148518D01*
X184885408Y-109430925D01*
X184393937Y-109430925D01*
X184400817Y-109069294D01*
X184481459Y-108715616D01*
X184638451Y-108447883D01*
X184687680Y-108403886D01*
X184901934Y-108296330D01*
X185154405Y-108245013D01*
X185382251Y-108257506D01*
X185522635Y-108341377D01*
X185569522Y-108387632D01*
X185672063Y-108341377D01*
X185764974Y-108286861D01*
X185959799Y-108249333D01*
X186155184Y-108249333D01*
X186155184Y-109418205D01*
X186155184Y-111043333D01*
G37*
G36*
X184080607Y-113349486D02*
G01*
X183907874Y-113629515D01*
X183697202Y-113763947D01*
X183416822Y-113836275D01*
X183143395Y-113829338D01*
X182944080Y-113735733D01*
X182866926Y-113677772D01*
X182842140Y-113741357D01*
X182790648Y-113808932D01*
X182608528Y-113821790D01*
X182508152Y-113806158D01*
X182430526Y-113762167D01*
X182386848Y-113656700D01*
X182363841Y-113453840D01*
X182348226Y-113117667D01*
X182348263Y-113108608D01*
X182842140Y-113108608D01*
X182872030Y-113247078D01*
X182976513Y-113362608D01*
X183056421Y-113388199D01*
X183315355Y-113408359D01*
X183529919Y-113342898D01*
X183658962Y-113211557D01*
X183661334Y-113034078D01*
X183649981Y-113011876D01*
X183511450Y-112931654D01*
X183227081Y-112906000D01*
X183131710Y-112906702D01*
X182940750Y-112924330D01*
X182859271Y-112983714D01*
X182842140Y-113108608D01*
X182348263Y-113108608D01*
X182350449Y-112576536D01*
X182410087Y-112166554D01*
X182531383Y-111890394D01*
X182717930Y-111734612D01*
X182922074Y-111671175D01*
X183263517Y-111639750D01*
X183598012Y-111674477D01*
X183849795Y-111772798D01*
X183873665Y-111790112D01*
X183980852Y-111919348D01*
X183927842Y-112017494D01*
X183721528Y-112079838D01*
X183368802Y-112101667D01*
X183158915Y-112104590D01*
X182976098Y-112126521D01*
X182889911Y-112183722D01*
X182857469Y-112292167D01*
X182854923Y-112401400D01*
X182925759Y-112467716D01*
X183120880Y-112482667D01*
X183242643Y-112487381D01*
X183586302Y-112549726D01*
X183867619Y-112668824D01*
X184033231Y-112824673D01*
X184104236Y-113031662D01*
X184104056Y-113034078D01*
X184080607Y-113349486D01*
G37*
G36*
X181907692Y-112736667D02*
G01*
X181907692Y-113837333D01*
X181695317Y-113837333D01*
X181598604Y-113832007D01*
X181532561Y-113793234D01*
X181498133Y-113687040D01*
X181485025Y-113479454D01*
X181482943Y-113136505D01*
X181477041Y-112859883D01*
X181432106Y-112465223D01*
X181337385Y-112214300D01*
X181186235Y-112093500D01*
X180972016Y-112089211D01*
X180874030Y-112096349D01*
X180685802Y-112048668D01*
X180543415Y-111946513D01*
X180485797Y-111824387D01*
X180551873Y-111716794D01*
X180552727Y-111716258D01*
X180780454Y-111647836D01*
X181067182Y-111650579D01*
X181318628Y-111723645D01*
X181430941Y-111768045D01*
X181482943Y-111723645D01*
X181535687Y-111665994D01*
X181695317Y-111636000D01*
X181907692Y-111636000D01*
X181907692Y-112736667D01*
G37*
G36*
X180457508Y-113071841D02*
G01*
X180426012Y-113283708D01*
X180351193Y-113437033D01*
X180215230Y-113589846D01*
X179991995Y-113756997D01*
X179675882Y-113836057D01*
X179353612Y-113749688D01*
X179236384Y-113704725D01*
X179189297Y-113755311D01*
X179125209Y-113812357D01*
X178955685Y-113821790D01*
X178722073Y-113795000D01*
X178706069Y-112758152D01*
X179206448Y-112758152D01*
X179231475Y-112961633D01*
X179337667Y-113230624D01*
X179516655Y-113353358D01*
X179762709Y-113324008D01*
X179777463Y-113318026D01*
X179916555Y-113198512D01*
X179963249Y-112972228D01*
X179957731Y-112547929D01*
X179901810Y-112264200D01*
X179788183Y-112107478D01*
X179609713Y-112059333D01*
X179562023Y-112061646D01*
X179349510Y-112158063D01*
X179229916Y-112392084D01*
X179206448Y-112758152D01*
X178706069Y-112758152D01*
X178698876Y-112292167D01*
X178675678Y-110789333D01*
X178932488Y-110789333D01*
X179189297Y-110789333D01*
X179189297Y-111300312D01*
X179189297Y-111301871D01*
X179193346Y-111580738D01*
X179213770Y-111722576D01*
X179263036Y-111759505D01*
X179353612Y-111723645D01*
X179467321Y-111678212D01*
X179779037Y-111638233D01*
X180077465Y-111688593D01*
X180165519Y-111739814D01*
X180326011Y-111962744D01*
X180427892Y-112317094D01*
X180463545Y-112781308D01*
X180459578Y-112972228D01*
X180457508Y-113071841D01*
G37*
G36*
X178338796Y-111637407D02*
G01*
X178472996Y-111671687D01*
X178477916Y-111765761D01*
X178435897Y-111887978D01*
X178354104Y-112137680D01*
X178245187Y-112476169D01*
X178121147Y-112866428D01*
X178073509Y-113016370D01*
X177952147Y-113382681D01*
X177859676Y-113621396D01*
X177782346Y-113759052D01*
X177706410Y-113822186D01*
X177618119Y-113837333D01*
X177611498Y-113837290D01*
X177505766Y-113814361D01*
X177422233Y-113726621D01*
X177340365Y-113540768D01*
X177239626Y-113223500D01*
X177228148Y-113184913D01*
X177134168Y-112873752D01*
X177055963Y-112622577D01*
X177009466Y-112482667D01*
X176990542Y-112474588D01*
X176929704Y-112572240D01*
X176844535Y-112789057D01*
X176747228Y-113096500D01*
X176682541Y-113315614D01*
X176591336Y-113589822D01*
X176514582Y-113747753D01*
X176435292Y-113820044D01*
X176336478Y-113837333D01*
X176285632Y-113833135D01*
X176207755Y-113795161D01*
X176132829Y-113696475D01*
X176047859Y-113511722D01*
X175939845Y-113215550D01*
X175795792Y-112782605D01*
X175770646Y-112705447D01*
X175645797Y-112318477D01*
X175544424Y-111997907D01*
X175476376Y-111775231D01*
X175451505Y-111681939D01*
X175517420Y-111650241D01*
X175688735Y-111636000D01*
X175751927Y-111637906D01*
X175875668Y-111675746D01*
X175957033Y-111794964D01*
X176032434Y-112038167D01*
X176058363Y-112135678D01*
X176150325Y-112477048D01*
X176233127Y-112779000D01*
X176327351Y-113117667D01*
X176551233Y-112398000D01*
X176668040Y-112045235D01*
X176765125Y-111817763D01*
X176855158Y-111696690D01*
X176954139Y-111652410D01*
X177002598Y-111649795D01*
X177086019Y-111684605D01*
X177165457Y-111796584D01*
X177257946Y-112014239D01*
X177380517Y-112366080D01*
X177627872Y-113105672D01*
X177826010Y-112370836D01*
X177829930Y-112356302D01*
X177925463Y-112012800D01*
X177998503Y-111800591D01*
X178068385Y-111688103D01*
X178154443Y-111643764D01*
X178276012Y-111636000D01*
X178338796Y-111637407D01*
G37*
G36*
X175375643Y-113392132D02*
G01*
X175248429Y-113596177D01*
X175084421Y-113736687D01*
X174869661Y-113805900D01*
X174539031Y-113824115D01*
X174256622Y-113749688D01*
X174144309Y-113705288D01*
X174092307Y-113749688D01*
X174039564Y-113807339D01*
X173879933Y-113837333D01*
X173667558Y-113837333D01*
X173667558Y-113056887D01*
X174102854Y-113056887D01*
X174180246Y-113250233D01*
X174252363Y-113332082D01*
X174455325Y-113407687D01*
X174693390Y-113390580D01*
X174896195Y-113278030D01*
X174974322Y-113158159D01*
X174939249Y-113027377D01*
X174763798Y-112938671D01*
X174464180Y-112906000D01*
X174328719Y-112909641D01*
X174146053Y-112950984D01*
X174102854Y-113056887D01*
X173667558Y-113056887D01*
X173667558Y-112944485D01*
X173667630Y-112850235D01*
X173671798Y-112476819D01*
X173687568Y-112227256D01*
X173722098Y-112063760D01*
X173782546Y-111948543D01*
X173876071Y-111843818D01*
X174036005Y-111717530D01*
X174235284Y-111653771D01*
X174534433Y-111638693D01*
X174564500Y-111639054D01*
X174902791Y-111673571D01*
X175135979Y-111755180D01*
X175242585Y-111871869D01*
X175201132Y-112011623D01*
X175158846Y-112051610D01*
X174997073Y-112103462D01*
X174722487Y-112087590D01*
X174691043Y-112083607D01*
X174371581Y-112089178D01*
X174165418Y-112186229D01*
X174092307Y-112366033D01*
X174096246Y-112390605D01*
X174199529Y-112460769D01*
X174453344Y-112483915D01*
X174753680Y-112513130D01*
X175091577Y-112636180D01*
X175321399Y-112837019D01*
X175422852Y-113095663D01*
X175412900Y-113158159D01*
X175375643Y-113392132D01*
G37*
G36*
X173242809Y-112680222D02*
G01*
X173242794Y-112703326D01*
X173237681Y-113105816D01*
X173224678Y-113443363D01*
X173205683Y-113681175D01*
X173182592Y-113784460D01*
X173117780Y-113814074D01*
X172948980Y-113819738D01*
X172882728Y-113802513D01*
X172823600Y-113744273D01*
X172787332Y-113615177D01*
X172765874Y-113382401D01*
X172751177Y-113013121D01*
X172744923Y-112835163D01*
X172725580Y-112518278D01*
X172693709Y-112320755D01*
X172641661Y-112207455D01*
X172561783Y-112143238D01*
X172430258Y-112101120D01*
X172203917Y-112102890D01*
X172049384Y-112105345D01*
X171901971Y-111974495D01*
X171844226Y-111844028D01*
X171843272Y-111717223D01*
X171871515Y-111690982D01*
X172033360Y-111646206D01*
X172261879Y-111640290D01*
X172485131Y-111671375D01*
X172631170Y-111737600D01*
X172708036Y-111796504D01*
X172733110Y-111737600D01*
X172733112Y-111737179D01*
X172807785Y-111665497D01*
X172987960Y-111636000D01*
X173242809Y-111636000D01*
X173242809Y-112680222D01*
G37*
G36*
X171749911Y-112781165D02*
G01*
X171681577Y-113172868D01*
X171526371Y-113498002D01*
X171298473Y-113710364D01*
X171263541Y-113728298D01*
X170907328Y-113825776D01*
X170541077Y-113800741D01*
X170231808Y-113656572D01*
X170100947Y-113543564D01*
X170058528Y-113448881D01*
X170126072Y-113351396D01*
X170204950Y-113289835D01*
X170335619Y-113272872D01*
X170550384Y-113334913D01*
X170724320Y-113388446D01*
X170894170Y-113388567D01*
X171069414Y-113299471D01*
X171223652Y-113162477D01*
X171288963Y-113031048D01*
X171266657Y-112976054D01*
X171164104Y-112933575D01*
X170950997Y-112912003D01*
X170597818Y-112906000D01*
X169906672Y-112906000D01*
X169959939Y-112503833D01*
X169990450Y-112372600D01*
X170439465Y-112372600D01*
X170450525Y-112406831D01*
X170580049Y-112464199D01*
X170864214Y-112482667D01*
X171121336Y-112477599D01*
X171252279Y-112447362D01*
X171269298Y-112369884D01*
X171201024Y-112223100D01*
X171097839Y-112115542D01*
X170898507Y-112058702D01*
X170682909Y-112090338D01*
X170510182Y-112198840D01*
X170439465Y-112372600D01*
X169990450Y-112372600D01*
X170014328Y-112269895D01*
X170189896Y-111953666D01*
X170442072Y-111742356D01*
X170738347Y-111638708D01*
X171046210Y-111645470D01*
X171333150Y-111765386D01*
X171566658Y-112001203D01*
X171714224Y-112355667D01*
X171717194Y-112369095D01*
X171717257Y-112369884D01*
X171749911Y-112781165D01*
G37*
G36*
X188278929Y-109309620D02*
G01*
X188278885Y-109351708D01*
X188270338Y-109648648D01*
X188232867Y-109842906D01*
X188146209Y-109994338D01*
X187990100Y-110162800D01*
X187856293Y-110285519D01*
X187636102Y-110415153D01*
X187386956Y-110450667D01*
X187243151Y-110440888D01*
X187018791Y-110358347D01*
X186783812Y-110162800D01*
X186678136Y-110052749D01*
X186558280Y-109882758D01*
X186506281Y-109688054D01*
X186496223Y-109428572D01*
X186944399Y-109428572D01*
X186995713Y-109709833D01*
X187046964Y-109818348D01*
X187167548Y-109918263D01*
X187386956Y-109942667D01*
X187516886Y-109936816D01*
X187678176Y-109877832D01*
X187771333Y-109725488D01*
X187827351Y-109533114D01*
X187839182Y-109166185D01*
X187721939Y-108860839D01*
X187700393Y-108832827D01*
X187505499Y-108700967D01*
X187281122Y-108684882D01*
X187095923Y-108792112D01*
X187055284Y-108852128D01*
X186967286Y-109114926D01*
X186944399Y-109428572D01*
X186496223Y-109428572D01*
X186494983Y-109396595D01*
X186496364Y-109314142D01*
X186557449Y-108877636D01*
X186700807Y-108542158D01*
X186915027Y-108336510D01*
X186948820Y-108321347D01*
X187164459Y-108270045D01*
X187430381Y-108249333D01*
X187542466Y-108253030D01*
X187800345Y-108318437D01*
X188030615Y-108496820D01*
X188158743Y-108638848D01*
X188237245Y-108789350D01*
X188271441Y-108993741D01*
X188275529Y-109166185D01*
X188278929Y-109309620D01*
G37*
G36*
X184084098Y-108957796D02*
G01*
X184099185Y-109445069D01*
X184097586Y-109465991D01*
X184015383Y-109890774D01*
X183841204Y-110186070D01*
X183564214Y-110370626D01*
X183500576Y-110394126D01*
X183128010Y-110437338D01*
X182711987Y-110327987D01*
X182656300Y-110303960D01*
X182466263Y-110189617D01*
X182433019Y-110075738D01*
X182547331Y-109940586D01*
X182551239Y-109937386D01*
X182697008Y-109876133D01*
X182891128Y-109930219D01*
X183119326Y-110010849D01*
X183328089Y-109997814D01*
X183521739Y-109858000D01*
X183628465Y-109740028D01*
X183675476Y-109628429D01*
X183598473Y-109561134D01*
X183382359Y-109528112D01*
X183012040Y-109519333D01*
X182332441Y-109519333D01*
X182332441Y-109217434D01*
X182365300Y-108985933D01*
X182842140Y-108985933D01*
X182853201Y-109020165D01*
X182982724Y-109077533D01*
X183266889Y-109096000D01*
X183496611Y-109087484D01*
X183655850Y-109045079D01*
X183665609Y-108957159D01*
X183536287Y-108812789D01*
X183519020Y-108797895D01*
X183301380Y-108693172D01*
X183081134Y-108698306D01*
X182910610Y-108800244D01*
X182842140Y-108985933D01*
X182365300Y-108985933D01*
X182382996Y-108861258D01*
X182557341Y-108537265D01*
X182838644Y-108327249D01*
X183208762Y-108251216D01*
X183370589Y-108259108D01*
X183720649Y-108365954D01*
X183958202Y-108598470D01*
X184083875Y-108957159D01*
X184084098Y-108957796D01*
G37*
G36*
X181403578Y-108336979D02*
G01*
X181515891Y-108381379D01*
X181567893Y-108336979D01*
X181620637Y-108279328D01*
X181780267Y-108249333D01*
X181992642Y-108249333D01*
X181992642Y-109350000D01*
X181992642Y-110450667D01*
X181780267Y-110450667D01*
X181683553Y-110445340D01*
X181617511Y-110406568D01*
X181583082Y-110300373D01*
X181569974Y-110092787D01*
X181567893Y-109749839D01*
X181547824Y-109305999D01*
X181474996Y-108948978D01*
X181346447Y-108740593D01*
X181159564Y-108673963D01*
X181005649Y-108691467D01*
X180880749Y-108767245D01*
X180799845Y-108929075D01*
X180750029Y-109204691D01*
X180718394Y-109621824D01*
X180714211Y-109698858D01*
X180692834Y-110039605D01*
X180667448Y-110248925D01*
X180627684Y-110358819D01*
X180563173Y-110401288D01*
X180463545Y-110408333D01*
X180251170Y-110408333D01*
X180251170Y-109547287D01*
X180251171Y-109536780D01*
X180254476Y-109143438D01*
X180269221Y-108879191D01*
X180302908Y-108704716D01*
X180363039Y-108580689D01*
X180457115Y-108467787D01*
X180472507Y-108452058D01*
X180747883Y-108288454D01*
X181080091Y-108247074D01*
X181403578Y-108336979D01*
G37*
G36*
X178493240Y-108301822D02*
G01*
X178737836Y-108433425D01*
X178780089Y-108478919D01*
X178902624Y-108722059D01*
X178936783Y-108999456D01*
X178869435Y-109231492D01*
X178743641Y-109349645D01*
X178493717Y-109470560D01*
X178224907Y-109519333D01*
X178044694Y-109530750D01*
X177820422Y-109612927D01*
X177745150Y-109773333D01*
X177813145Y-109935533D01*
X177994364Y-110014751D01*
X178251360Y-110003725D01*
X178546682Y-109896691D01*
X178713515Y-109821183D01*
X178834668Y-109827365D01*
X178966103Y-109936586D01*
X179136165Y-110106081D01*
X178759219Y-110281180D01*
X178473603Y-110383698D01*
X178064677Y-110429443D01*
X177703852Y-110353009D01*
X177429391Y-110157941D01*
X177279609Y-109923930D01*
X177237711Y-109647185D01*
X177347356Y-109405626D01*
X177598353Y-109218709D01*
X177980510Y-109105888D01*
X178275203Y-109052877D01*
X178444851Y-108995515D01*
X178503366Y-108918309D01*
X178480385Y-108803318D01*
X178404293Y-108726933D01*
X178208168Y-108677175D01*
X177961011Y-108689913D01*
X177725053Y-108768053D01*
X177697115Y-108782404D01*
X177549579Y-108812342D01*
X177429421Y-108704553D01*
X177380829Y-108630258D01*
X177373707Y-108521077D01*
X177495820Y-108397500D01*
X177546130Y-108362334D01*
X177826588Y-108264229D01*
X178165891Y-108244741D01*
X178493240Y-108301822D01*
G37*
G36*
X176963239Y-109711264D02*
G01*
X176900714Y-109986524D01*
X176776720Y-110176908D01*
X176574954Y-110323273D01*
X176441018Y-110378787D01*
X176116416Y-110419156D01*
X175786405Y-110368094D01*
X175529128Y-110232391D01*
X175499449Y-110203823D01*
X175317241Y-109911214D01*
X175226556Y-109536903D01*
X175226995Y-109414230D01*
X175706872Y-109414230D01*
X175734275Y-109673877D01*
X175808294Y-109841067D01*
X175879585Y-109892577D01*
X176095390Y-109942559D01*
X176317987Y-109902170D01*
X176467914Y-109778899D01*
X176539565Y-109600239D01*
X176570645Y-109314449D01*
X176517377Y-109050855D01*
X176398713Y-108838820D01*
X176233602Y-108707709D01*
X176040997Y-108686886D01*
X175839847Y-108805714D01*
X175783408Y-108896605D01*
X175723958Y-109131887D01*
X175706872Y-109414230D01*
X175226995Y-109414230D01*
X175227993Y-109135363D01*
X175322155Y-108761064D01*
X175509644Y-108468479D01*
X175743819Y-108308004D01*
X176081905Y-108234623D01*
X176427871Y-108297943D01*
X176732287Y-108496820D01*
X176858922Y-108636891D01*
X176938355Y-108787575D01*
X176972998Y-108991554D01*
X176980602Y-109306720D01*
X176980601Y-109310272D01*
X176980420Y-109314449D01*
X176963239Y-109711264D01*
G37*
G36*
X173461508Y-108253716D02*
G01*
X173530541Y-108289781D01*
X173566601Y-108391949D01*
X173580390Y-108594630D01*
X173582608Y-108932233D01*
X173588631Y-109254624D01*
X173623290Y-109592150D01*
X173697810Y-109803107D01*
X173822422Y-109911833D01*
X174007358Y-109942667D01*
X174142879Y-109928339D01*
X174284763Y-109845889D01*
X174373441Y-109668613D01*
X174419145Y-109372174D01*
X174432107Y-108932233D01*
X174433470Y-108638738D01*
X174444686Y-108416760D01*
X174476459Y-108300805D01*
X174539490Y-108256466D01*
X174644481Y-108249333D01*
X174856856Y-108249333D01*
X174854154Y-109117167D01*
X174853887Y-109177893D01*
X174843516Y-109603262D01*
X174811080Y-109898353D01*
X174745899Y-110097810D01*
X174637293Y-110236279D01*
X174474582Y-110348405D01*
X174444996Y-110364578D01*
X174133121Y-110443425D01*
X173814696Y-110353859D01*
X173667167Y-110299394D01*
X173600827Y-110353859D01*
X173533098Y-110415410D01*
X173363155Y-110450667D01*
X173157859Y-110450667D01*
X173157859Y-109350000D01*
X173157859Y-108249333D01*
X173370234Y-108249333D01*
X173461508Y-108253716D01*
G37*
G36*
X172648160Y-109350000D02*
G01*
X172648160Y-110450667D01*
X172435786Y-110450667D01*
X172419721Y-110450641D01*
X172324541Y-110441832D01*
X172266510Y-110394549D01*
X172236439Y-110276079D01*
X172225136Y-110053705D01*
X172223411Y-109694714D01*
X172211787Y-109288300D01*
X172164241Y-108965772D01*
X172070359Y-108773912D01*
X171919926Y-108693293D01*
X171702727Y-108704490D01*
X171694445Y-108706105D01*
X171485420Y-108701513D01*
X171335667Y-108568325D01*
X171318626Y-108543535D01*
X171255145Y-108402448D01*
X171311509Y-108318320D01*
X171330547Y-108307519D01*
X171550296Y-108256379D01*
X171823801Y-108266964D01*
X172059096Y-108336979D01*
X172171410Y-108381379D01*
X172223411Y-108336979D01*
X172276155Y-108279328D01*
X172435786Y-108249333D01*
X172648160Y-108249333D01*
X172648160Y-109350000D01*
G37*
G36*
X170551138Y-108267271D02*
G01*
X170854285Y-108387398D01*
X170882749Y-108408713D01*
X171087973Y-108656572D01*
X171233603Y-108994995D01*
X171288963Y-109355652D01*
X171282154Y-109468265D01*
X171189375Y-109814297D01*
X171013991Y-110120864D01*
X170789333Y-110323405D01*
X170550927Y-110414916D01*
X170158716Y-110425233D01*
X169768588Y-110274675D01*
X169479986Y-110099317D01*
X169661457Y-109918451D01*
X169711871Y-109870503D01*
X169842832Y-109792882D01*
X169945812Y-109840126D01*
X170031558Y-109893080D01*
X170257214Y-109937946D01*
X170501978Y-109920646D01*
X170677324Y-109841067D01*
X170703522Y-109802203D01*
X170757698Y-109614573D01*
X170779264Y-109360900D01*
X170776430Y-109269884D01*
X170701408Y-108941558D01*
X170537127Y-108738305D01*
X170300674Y-108673449D01*
X170009131Y-108760312D01*
X169881263Y-108802432D01*
X169658695Y-108748681D01*
X169472574Y-108649404D01*
X169705907Y-108449369D01*
X169859272Y-108350666D01*
X170195001Y-108256347D01*
X170551138Y-108267271D01*
G37*
G36*
X169413722Y-109137576D02*
G01*
X169401477Y-109525255D01*
X169300851Y-109889777D01*
X169125379Y-110184694D01*
X168888593Y-110363559D01*
X168782604Y-110399546D01*
X168368575Y-110435921D01*
X167971701Y-110321492D01*
X167957641Y-110314188D01*
X167769572Y-110188747D01*
X167736299Y-110074559D01*
X167848418Y-109942730D01*
X167890938Y-109911891D01*
X168027855Y-109881381D01*
X168234520Y-109944215D01*
X168293181Y-109965650D01*
X168574938Y-109992622D01*
X168803325Y-109897322D01*
X168933101Y-109695835D01*
X168945643Y-109635364D01*
X168928444Y-109570985D01*
X168837837Y-109536239D01*
X168641664Y-109522047D01*
X168307766Y-109519333D01*
X167636120Y-109519333D01*
X167636120Y-109131820D01*
X167641728Y-109023562D01*
X168098829Y-109023562D01*
X168122451Y-109074450D01*
X168255452Y-109093273D01*
X168528093Y-109096000D01*
X168577123Y-109095991D01*
X168827787Y-109091930D01*
X168943169Y-109069472D01*
X168953530Y-109012651D01*
X168889130Y-108905500D01*
X168778335Y-108791864D01*
X168528093Y-108715000D01*
X168369412Y-108743552D01*
X168167057Y-108905500D01*
X168154327Y-108924644D01*
X168098829Y-109023562D01*
X167641728Y-109023562D01*
X167646813Y-108925413D01*
X167717575Y-108702162D01*
X167884435Y-108496820D01*
X168179323Y-108299902D01*
X168520217Y-108235352D01*
X168854843Y-108305380D01*
X169141959Y-108501021D01*
X169340321Y-108813309D01*
X169385444Y-109012651D01*
X169413722Y-109137576D01*
G37*
G36*
X179272074Y-93283986D02*
G01*
X179482275Y-94362971D01*
X180193776Y-94659819D01*
X180348517Y-94723608D01*
X180650001Y-94843089D01*
X180875211Y-94925773D01*
X180984221Y-94956667D01*
X180988884Y-94956001D01*
X181099587Y-94900193D01*
X181316742Y-94767614D01*
X181611180Y-94576645D01*
X181953732Y-94345670D01*
X182844302Y-93734674D01*
X183607769Y-94492072D01*
X183643080Y-94527178D01*
X183927160Y-94815504D01*
X184158541Y-95060522D01*
X184314231Y-95237272D01*
X184371237Y-95320798D01*
X184371047Y-95322877D01*
X184319857Y-95423940D01*
X184190877Y-95632484D01*
X184002804Y-95919247D01*
X183774334Y-96254970D01*
X183177430Y-97117814D01*
X183486666Y-97836407D01*
X183557565Y-97999264D01*
X183692232Y-98297844D01*
X183797791Y-98517767D01*
X183855978Y-98620267D01*
X183856423Y-98620729D01*
X183961519Y-98661276D01*
X184198570Y-98722785D01*
X184532800Y-98796984D01*
X184929432Y-98875601D01*
X185942809Y-99065668D01*
X185966482Y-100181875D01*
X185990155Y-101298083D01*
X185669158Y-101355065D01*
X185623971Y-101363185D01*
X185356885Y-101412807D01*
X185002925Y-101480163D01*
X184626087Y-101553103D01*
X183904013Y-101694159D01*
X183569728Y-102514300D01*
X183235444Y-103334441D01*
X183760645Y-104091056D01*
X183930922Y-104339673D01*
X184127223Y-104635594D01*
X184271374Y-104864055D01*
X184340490Y-104989596D01*
X184330674Y-105084794D01*
X184226921Y-105252781D01*
X184015112Y-105500988D01*
X183684225Y-105843761D01*
X183405908Y-106113474D01*
X183150458Y-106343322D01*
X182956371Y-106498830D01*
X182851698Y-106556000D01*
X182776526Y-106530569D01*
X182579394Y-106425519D01*
X182304260Y-106257862D01*
X181985901Y-106048000D01*
X181746600Y-105887968D01*
X181463458Y-105708145D01*
X181252303Y-105585409D01*
X181146573Y-105540000D01*
X181106313Y-105546996D01*
X180933932Y-105609653D01*
X180704903Y-105716193D01*
X180598099Y-105765623D01*
X180398720Y-105828992D01*
X180287810Y-105822026D01*
X180287447Y-105821658D01*
X180227312Y-105715902D01*
X180118773Y-105483598D01*
X179973376Y-105152961D01*
X179802665Y-104752205D01*
X179618184Y-104309543D01*
X179431477Y-103853190D01*
X179254090Y-103411360D01*
X179097565Y-103012267D01*
X178973448Y-102684125D01*
X178893283Y-102455149D01*
X178868614Y-102353551D01*
X178911135Y-102289681D01*
X179059984Y-102143954D01*
X179274247Y-101969540D01*
X179466122Y-101808132D01*
X179843309Y-101343676D01*
X180076836Y-100801796D01*
X180154966Y-100206000D01*
X180153095Y-100104037D01*
X180087290Y-99587054D01*
X179911660Y-99147521D01*
X179604054Y-98725926D01*
X179363254Y-98494275D01*
X178884700Y-98201641D01*
X178351227Y-98041504D01*
X177794976Y-98013864D01*
X177248092Y-98118721D01*
X176742717Y-98356075D01*
X176310995Y-98725926D01*
X176247200Y-98800379D01*
X175964079Y-99220820D01*
X175809090Y-99669523D01*
X175760084Y-100206000D01*
X175772368Y-100453398D01*
X175915137Y-101030094D01*
X176208528Y-101543311D01*
X176640802Y-101969540D01*
X176797863Y-102094613D01*
X176970053Y-102252811D01*
X177046436Y-102353551D01*
X177046511Y-102353887D01*
X177021142Y-102457102D01*
X176940408Y-102687372D01*
X176815855Y-103016486D01*
X176659027Y-103416227D01*
X176481467Y-103858383D01*
X176294721Y-104314738D01*
X176110332Y-104757080D01*
X175939845Y-105157194D01*
X175794804Y-105486865D01*
X175686754Y-105717881D01*
X175627239Y-105822026D01*
X175590245Y-105834969D01*
X175430818Y-105807295D01*
X175210147Y-105716193D01*
X175109858Y-105667121D01*
X174897009Y-105576100D01*
X174768477Y-105540000D01*
X174700445Y-105565980D01*
X174512565Y-105671241D01*
X174244320Y-105838660D01*
X173929149Y-106048000D01*
X173691042Y-106206383D01*
X173401286Y-106387011D01*
X173180464Y-106510352D01*
X173063351Y-106556000D01*
X172964058Y-106502662D01*
X172772648Y-106350214D01*
X172518886Y-106122581D01*
X172230825Y-105843761D01*
X171924837Y-105527924D01*
X171702697Y-105271742D01*
X171589611Y-105097081D01*
X171574560Y-104989596D01*
X171619498Y-104904710D01*
X171747815Y-104697597D01*
X171933745Y-104414558D01*
X172154405Y-104091056D01*
X172679606Y-103334441D01*
X172345321Y-102514300D01*
X172011037Y-101694159D01*
X171288963Y-101553103D01*
X171197287Y-101535238D01*
X170820148Y-101462547D01*
X170481684Y-101398439D01*
X170245892Y-101355065D01*
X169924894Y-101298083D01*
X169948567Y-100181889D01*
X169972241Y-99065695D01*
X170989998Y-98871249D01*
X171002212Y-98868912D01*
X171397710Y-98789220D01*
X171729389Y-98715022D01*
X171962789Y-98654518D01*
X172063452Y-98615902D01*
X172083983Y-98583640D01*
X172165895Y-98420528D01*
X172286697Y-98158632D01*
X172428384Y-97836407D01*
X172737619Y-97117814D01*
X172140716Y-96254970D01*
X172125614Y-96233117D01*
X171899120Y-95899595D01*
X171714191Y-95616862D01*
X171589523Y-95414176D01*
X171543812Y-95320798D01*
X171544625Y-95316693D01*
X171614256Y-95221075D01*
X171779904Y-95035127D01*
X172018576Y-94783806D01*
X172307280Y-94492072D01*
X173070748Y-93734674D01*
X173961317Y-94345670D01*
X174003069Y-94374256D01*
X174341485Y-94601487D01*
X174628362Y-94786554D01*
X174834533Y-94911075D01*
X174930829Y-94956667D01*
X174964444Y-94949720D01*
X175132364Y-94892918D01*
X175397950Y-94791286D01*
X175721273Y-94659819D01*
X176432775Y-94362971D01*
X176642976Y-93283986D01*
X176853177Y-92205000D01*
X177957525Y-92205000D01*
X179061873Y-92205000D01*
X179272074Y-93283986D01*
G37*
%TD*%
M02*
