%TF.GenerationSoftware,KiCad,Pcbnew,8.0.3*%
%TF.CreationDate,2024-07-12T15:18:38+08:00*%
%TF.ProjectId,seq_v003f4,7365715f-7630-4303-9366-342e6b696361,rev?*%
%TF.SameCoordinates,Original*%
%TF.FileFunction,Paste,Top*%
%TF.FilePolarity,Positive*%
%FSLAX46Y46*%
G04 Gerber Fmt 4.6, Leading zero omitted, Abs format (unit mm)*
G04 Created by KiCad (PCBNEW 8.0.3) date 2024-07-12 15:18:38*
%MOMM*%
%LPD*%
G01*
G04 APERTURE LIST*
G04 Aperture macros list*
%AMRoundRect*
0 Rectangle with rounded corners*
0 $1 Rounding radius*
0 $2 $3 $4 $5 $6 $7 $8 $9 X,Y pos of 4 corners*
0 Add a 4 corners polygon primitive as box body*
4,1,4,$2,$3,$4,$5,$6,$7,$8,$9,$2,$3,0*
0 Add four circle primitives for the rounded corners*
1,1,$1+$1,$2,$3*
1,1,$1+$1,$4,$5*
1,1,$1+$1,$6,$7*
1,1,$1+$1,$8,$9*
0 Add four rect primitives between the rounded corners*
20,1,$1+$1,$2,$3,$4,$5,0*
20,1,$1+$1,$4,$5,$6,$7,0*
20,1,$1+$1,$6,$7,$8,$9,0*
20,1,$1+$1,$8,$9,$2,$3,0*%
G04 Aperture macros list end*
%ADD10RoundRect,0.250000X0.625000X-0.312500X0.625000X0.312500X-0.625000X0.312500X-0.625000X-0.312500X0*%
%ADD11RoundRect,0.250000X0.600000X-0.400000X0.600000X0.400000X-0.600000X0.400000X-0.600000X-0.400000X0*%
%ADD12RoundRect,0.375000X0.375000X-0.625000X0.375000X0.625000X-0.375000X0.625000X-0.375000X-0.625000X0*%
%ADD13RoundRect,0.500000X1.400000X-0.500000X1.400000X0.500000X-1.400000X0.500000X-1.400000X-0.500000X0*%
%ADD14RoundRect,0.150000X-0.825000X-0.150000X0.825000X-0.150000X0.825000X0.150000X-0.825000X0.150000X0*%
%ADD15RoundRect,0.250000X-0.650000X0.412500X-0.650000X-0.412500X0.650000X-0.412500X0.650000X0.412500X0*%
%ADD16RoundRect,0.250000X-0.412500X-0.650000X0.412500X-0.650000X0.412500X0.650000X-0.412500X0.650000X0*%
%ADD17RoundRect,0.250000X0.375000X0.625000X-0.375000X0.625000X-0.375000X-0.625000X0.375000X-0.625000X0*%
%ADD18RoundRect,0.250000X-0.600000X0.400000X-0.600000X-0.400000X0.600000X-0.400000X0.600000X0.400000X0*%
%ADD19RoundRect,0.250000X0.312500X0.625000X-0.312500X0.625000X-0.312500X-0.625000X0.312500X-0.625000X0*%
%ADD20RoundRect,0.250000X-0.312500X-0.625000X0.312500X-0.625000X0.312500X0.625000X-0.312500X0.625000X0*%
%ADD21RoundRect,0.250000X-0.375000X-0.625000X0.375000X-0.625000X0.375000X0.625000X-0.375000X0.625000X0*%
%ADD22RoundRect,0.150000X-0.587500X-0.150000X0.587500X-0.150000X0.587500X0.150000X-0.587500X0.150000X0*%
%ADD23RoundRect,0.100000X-0.637500X-0.100000X0.637500X-0.100000X0.637500X0.100000X-0.637500X0.100000X0*%
%ADD24RoundRect,0.250000X-0.275000X-0.700000X0.275000X-0.700000X0.275000X0.700000X-0.275000X0.700000X0*%
G04 APERTURE END LIST*
D10*
%TO.C,R12*%
X201000000Y-102500000D03*
X201000000Y-105425000D03*
%TD*%
D11*
%TO.C,D1*%
X188000000Y-111250000D03*
X188000000Y-107750000D03*
%TD*%
D12*
%TO.C,U1*%
X172700000Y-101150000D03*
X175000000Y-101150000D03*
D13*
X175000000Y-94850000D03*
D12*
X177300000Y-101150000D03*
%TD*%
D14*
%TO.C,Q2*%
X223500000Y-95460000D03*
X223500000Y-96730000D03*
X223500000Y-98000000D03*
X223500000Y-99270000D03*
X218550000Y-99270000D03*
X218550000Y-98000000D03*
X218550000Y-96730000D03*
X218550000Y-95460000D03*
%TD*%
D15*
%TO.C,C3*%
X169500000Y-96375000D03*
X169500000Y-99500000D03*
%TD*%
D16*
%TO.C,C4*%
X192937500Y-94500000D03*
X196062500Y-94500000D03*
%TD*%
D17*
%TO.C,D6*%
X208000000Y-118500000D03*
X205200000Y-118500000D03*
%TD*%
D18*
%TO.C,D2*%
X173000000Y-107750000D03*
X173000000Y-111250000D03*
%TD*%
D17*
%TO.C,D5*%
X208000000Y-115500000D03*
X205200000Y-115500000D03*
%TD*%
D19*
%TO.C,R4*%
X230500000Y-104000000D03*
X227575000Y-104000000D03*
%TD*%
D20*
%TO.C,R5*%
X199537500Y-112000000D03*
X202462500Y-112000000D03*
%TD*%
D17*
%TO.C,D4*%
X208000000Y-112000000D03*
X205200000Y-112000000D03*
%TD*%
D10*
%TO.C,R9*%
X184000000Y-101000000D03*
X184000000Y-98075000D03*
%TD*%
D21*
%TO.C,D3*%
X227700000Y-107500000D03*
X230500000Y-107500000D03*
%TD*%
D10*
%TO.C,R10*%
X207000000Y-105425000D03*
X207000000Y-102500000D03*
%TD*%
D15*
%TO.C,C1*%
X182000000Y-107875000D03*
X182000000Y-111000000D03*
%TD*%
%TO.C,C5*%
X186500000Y-97875000D03*
X186500000Y-101000000D03*
%TD*%
D22*
%TO.C,Q3*%
X215937500Y-103500000D03*
X214062500Y-104450000D03*
X214062500Y-102550000D03*
%TD*%
D17*
%TO.C,D7*%
X208000000Y-122000000D03*
X205200000Y-122000000D03*
%TD*%
D20*
%TO.C,R7*%
X199537500Y-118500000D03*
X202462500Y-118500000D03*
%TD*%
D19*
%TO.C,R2*%
X216500000Y-114500000D03*
X213575000Y-114500000D03*
%TD*%
D14*
%TO.C,Q1*%
X207525000Y-95595000D03*
X207525000Y-96865000D03*
X207525000Y-98135000D03*
X207525000Y-99405000D03*
X212475000Y-99405000D03*
X212475000Y-98135000D03*
X212475000Y-96865000D03*
X212475000Y-95595000D03*
%TD*%
D10*
%TO.C,R3*%
X185000000Y-110962500D03*
X185000000Y-108037500D03*
%TD*%
D19*
%TO.C,R1*%
X216462500Y-107500000D03*
X213537500Y-107500000D03*
%TD*%
D23*
%TO.C,U2*%
X197362500Y-97075000D03*
X197362500Y-97725000D03*
X197362500Y-98375000D03*
X197362500Y-99025000D03*
X197362500Y-99675000D03*
X197362500Y-100325000D03*
X197362500Y-100975000D03*
X197362500Y-101625000D03*
X197362500Y-102275000D03*
X197362500Y-102925000D03*
X191637500Y-102925000D03*
X191637500Y-102275000D03*
X191637500Y-101625000D03*
X191637500Y-100975000D03*
X191637500Y-100325000D03*
X191637500Y-99675000D03*
X191637500Y-99025000D03*
X191637500Y-98375000D03*
X191637500Y-97725000D03*
X191637500Y-97075000D03*
%TD*%
D20*
%TO.C,R14*%
X227537500Y-100500000D03*
X230462500Y-100500000D03*
%TD*%
D10*
%TO.C,R11*%
X204000000Y-105425000D03*
X204000000Y-102500000D03*
%TD*%
D24*
%TO.C,L1*%
X180350000Y-94000000D03*
X183500000Y-94000000D03*
%TD*%
D20*
%TO.C,R8*%
X199537500Y-122000000D03*
X202462500Y-122000000D03*
%TD*%
%TO.C,R6*%
X199537500Y-115500000D03*
X202462500Y-115500000D03*
%TD*%
D15*
%TO.C,C2*%
X166500000Y-96375000D03*
X166500000Y-99500000D03*
%TD*%
D10*
%TO.C,R13*%
X210000000Y-105500000D03*
X210000000Y-102575000D03*
%TD*%
M02*
