M48
; DRILL file {KiCad 8.0.3} date 2024-07-12T15:18:19+0800
; FORMAT={-:-/ absolute / inch / decimal}
; #@! TF.CreationDate,2024-07-12T15:18:19+08:00
; #@! TF.GenerationSoftware,Kicad,Pcbnew,8.0.3
; #@! TF.FileFunction,Plated,1,2,PTH
FMAT,2
INCH
; #@! TA.AperFunction,Plated,PTH,ViaDrill
T1C0.0118
; #@! TA.AperFunction,Plated,PTH,ComponentDrill
T2C0.0394
; #@! TA.AperFunction,Plated,PTH,ComponentDrill
T3C0.0512
; #@! TA.AperFunction,Plated,PTH,ComponentDrill
T4C0.1260
%
G90
G05
T1
X7.3425Y-4.0945
X7.6122Y-3.8583
X7.6181Y-3.8189
X7.6378Y-4.0354
X7.6772Y-3.9173
X7.6969Y-4.0551
X7.7756Y-3.6811
X7.8346Y-3.7795
X7.8346Y-3.878
X7.8543Y-4.0157
X7.8937Y-3.8583
X7.9528Y-3.9173
X8.0709Y-3.8189
X8.1299Y-4.2126
X8.1496Y-4.252
X8.2677Y-3.9961
X8.3071Y-4.5866
X8.4646Y-4.7047
X8.5433Y-3.8189
X8.622Y-3.4252
X8.7008Y-3.8189
X8.8976Y-4.1535
T2
X8.4242Y-4.8612
X8.5242Y-4.8612
X8.6242Y-4.8612
X8.6506Y-4.2323
X8.6506Y-4.5079
X8.7506Y-4.2323
X8.7506Y-4.5079
T3
X6.7717Y-3.3268
X6.811Y-4.7441
X6.9685Y-3.3268
X7.0079Y-4.7441
X7.1654Y-3.3268
X7.3622Y-3.3268
X7.4016Y-4.7441
X7.5984Y-4.7441
X7.9724Y-3.3268
X8.1693Y-3.3268
X8.5433Y-3.3268
X8.7402Y-3.3268
T4
X6.5354Y-3.2874
X6.5354Y-4.7835
X9.0157Y-3.2874
X9.0157Y-4.7835
M30
